<?xml version="1.0" standalone="no"?>
<!DOCTYPE svg PUBLIC "-//W3C//DTD SVG 1.1//EN" "http://www.w3.org/Graphics/SVG/1.1/DTD/svg11.dtd">
<svg width="100%" height="100%" viewBox="0 0 3300 2550" version="1.1" xmlns="http://www.w3.org/2000/svg" xmlns:xlink="http://www.w3.org/1999/xlink" xml:space="preserve" style="fill-rule:evenodd;clip-rule:evenodd;stroke-linecap:round;stroke-linejoin:round;stroke-miterlimit:1.41421;">
    <path d="M1232.31,505.213L1573.85,1185.98L890.769,1185.98L1232.31,505.213Z" style="fill:rgb(235,235,235);"/>
    <g transform="matrix(0.875951,0,0,0.875951,-681.994,-1202.26)">
        <path d="M1708.08,1926C1706.73,1923.37 1705.99,1920.51 1705.99,1917.52C1705.99,1904.79 1719.43,1894.44 1735.99,1894.44C1738.62,1894.44 1741.18,1894.71 1743.62,1895.2C1741.66,1889.53 1740.6,1883.45 1740.6,1877.14C1740.6,1845.93 1766.45,1820.6 1798.3,1820.6C1798.75,1820.6 1799.21,1820.6 1799.67,1820.61C1809.36,1791.14 1837.13,1769.83 1869.84,1769.83C1910.59,1769.83 1943.68,1802.92 1943.68,1843.67C1943.68,1851.25 1942.54,1858.56 1940.41,1865.44C1943.7,1864.79 1947.11,1864.44 1950.6,1864.44C1977.35,1864.44 1999.07,1884.61 1999.07,1909.44C1999.07,1911.91 1998.85,1914.32 1998.44,1916.68C1998.71,1917.65 1998.85,1918.67 1998.85,1919.73L1998.85,1942.81C1998.85,1949.17 1993.68,1954.35 1987.31,1954.35L1953.84,1954.35C1952.77,1954.41 1951.69,1954.44 1950.6,1954.44C1949.52,1954.44 1948.44,1954.41 1947.37,1954.35L1719.62,1954.35C1713.25,1954.35 1708.08,1949.17 1708.08,1942.81L1708.08,1926Z" style="fill:rgb(235,235,235);"/>
    </g>
    <g transform="matrix(1,0,0,1,-80.7692,2)">
        <path d="M1080.91,780.063L1225.14,1183.91L936.68,1183.91L1080.91,780.063Z" style="fill:rgb(235,235,235);"/>
    </g>
    <g transform="matrix(0.511675,-0.16965,0.169533,0.511322,518.428,432.221)">
        <path d="M1444.97,560.202C1440.8,555.953 1438.39,550.944 1438.39,545.584C1438.39,530.225 1458.16,517.756 1482.51,517.756C1506.86,517.756 1526.62,530.225 1526.62,545.584C1526.62,550.476 1524.62,555.075 1521.1,559.072C1519.01,557.843 1516.47,557.122 1513.73,557.122C1507.85,557.122 1502.89,560.439 1501.34,564.968C1498.98,562.865 1495.65,561.552 1491.95,561.552C1488.16,561.552 1484.75,562.931 1482.39,565.125C1480.09,562.157 1476.11,560.195 1471.59,560.195C1467.8,560.195 1464.39,561.574 1462.03,563.768C1459.73,560.8 1455.75,558.837 1451.23,558.837C1448.96,558.837 1446.82,559.333 1444.97,560.202Z" style="fill:rgb(235,235,235);"/>
    </g>
    <path d="M1570.15,1186C1477.01,994.395 1290.72,611.179 1236.61,510.022C1225.67,489.564 1241.29,557.379 1245.47,579.056C1249.46,599.725 1262.39,620.41 1261.71,640.084C1261.02,659.757 1245.87,678.772 1241.34,697.097C1237.08,714.37 1230.49,736.238 1234.56,750.039C1238.63,763.839 1255,770.347 1265.78,779.903C1277.77,790.536 1295.64,799.899 1306.5,813.839C1324.83,837.369 1356.5,891.441 1375.73,921.079C1391.04,944.662 1407.39,967.579 1421.89,991.667C1437.95,1018.36 1456.95,1054.11 1472.11,1081.26C1485.74,1105.67 1502.43,1137.14 1512.84,1154.56C1519.34,1165.45 1529.49,1179.01 1534.56,1185.79" style="fill:rgb(77,77,77);"/>
    <path d="M1002.37,785.052C999.826,801.696 994.733,834.985 998.13,850.995C1000.82,863.679 1017.71,869.162 1022.75,881.108C1028.81,895.468 1030.62,918.46 1034.49,937.151C1038.47,956.461 1038.41,978.374 1046.69,996.965C1065.2,1038.57 1118.78,1137.37 1145.57,1186.77" style="fill:rgb(102,102,102);"/>
    <g transform="matrix(1.08247,0,0,0.681373,-121.416,380.474)">
        <path d="M1538,907.764L1603.84,1184.69L1472.17,1184.69L1538,907.764Z" style="fill:rgb(235,235,235);"/>
    </g>
    <path d="M1545.4,999.849C1544.71,1014.13 1543.34,1042.69 1545.4,1054.95C1546.63,1062.25 1554.36,1066.82 1557.77,1073.39C1561.49,1080.55 1566.27,1089.21 1567.73,1097.9C1569.39,1107.8 1562.32,1122.46 1567.73,1132.73C1575.03,1146.59 1599.35,1169.57 1611.51,1181.06" style="fill:rgb(102,102,102);"/>
    <g transform="matrix(1,0,0,1,-1.43524,-30.7268)">
        <path d="M1472.39,410.426L1352.23,410.426C1349.05,410.426 1346.46,407.841 1346.46,404.656L1346.46,393.118C1346.46,389.934 1349.05,387.349 1352.23,387.349L1396.44,387.349L1421.92,360.445C1423.73,358.54 1426.74,358.459 1428.64,360.263L1435.55,366.801C1437.45,368.606 1437.53,371.617 1435.73,373.522L1422.63,387.349L1456.63,387.349C1458.71,381.766 1464.03,373.047 1466.77,370.398C1469.4,367.859 1476.78,367.034 1477.69,370.398C1477.99,371.522 1477.89,373.755 1477.48,376.362C1477.75,376.565 1477.92,376.886 1477.92,377.246L1477.92,391.461C1478.08,391.986 1478.16,392.542 1478.16,393.118L1478.16,404.656C1478.16,407.84 1475.58,410.426 1472.39,410.426Z" style="fill:rgb(235,235,235);"/>
    </g>
    <g transform="matrix(0.714076,-0.0287393,0.0287393,0.714076,443.896,227.549)">
        <path d="M1444.97,560.202C1440.8,555.953 1438.39,550.944 1438.39,545.584C1438.39,530.225 1458.16,517.756 1482.51,517.756C1506.86,517.756 1526.62,530.225 1526.62,545.584C1526.62,550.476 1524.62,555.075 1521.1,559.072C1519.01,557.843 1516.47,557.122 1513.73,557.122C1507.85,557.122 1502.89,560.439 1501.34,564.968C1498.98,562.865 1495.65,561.552 1491.95,561.552C1488.16,561.552 1484.75,562.931 1482.39,565.125C1480.09,562.157 1476.11,560.195 1471.59,560.195C1467.8,560.195 1464.39,561.574 1462.03,563.768C1459.73,560.8 1455.75,558.837 1451.23,558.837C1448.96,558.837 1446.82,559.333 1444.97,560.202Z" style="fill:rgb(235,235,235);"/>
    </g>
    <g transform="matrix(1.07189,0,0,1.8304,-98.325,-392.318)">
        <path d="M1353.87,473.089C1359.43,477.208 1370.58,485.447 1372.06,485.317C1373.55,485.186 1366.37,476.598 1362.78,472.304" style="fill:none;stroke-width:0.42px;stroke:rgb(217,217,217);"/>
    </g>
    <g transform="matrix(0.869983,0,0,2.04957,177.843,-494.131)">
        <path d="M1373.21,469.901C1373.39,474.439 1373.75,483.517 1374.27,482.721C1375.52,480.806 1381.35,472.55 1384.26,468.422" style="fill:none;stroke-width:0.4px;stroke:rgb(217,217,217);"/>
    </g>
    <g transform="matrix(0.869983,0,0,2.04957,325.152,-373.344)">
        <path d="M1371.91,469.182C1372.53,473.96 1373.75,483.517 1374.27,482.721C1375.52,480.806 1383.26,472.724 1387.14,468.683" style="fill:none;stroke-width:0.4px;stroke:rgb(217,217,217);"/>
    </g>
    <g transform="matrix(0.83379,0,0,1.46342,231.221,-213.247)">
        <path d="M1391.14,460.163C1384.08,468.179 1377.01,476.195 1369.95,484.211" style="fill:none;stroke-width:0.52px;stroke:rgb(217,217,217);"/>
    </g>
    <g transform="matrix(0.83379,0,0,1.46342,387.296,-91.575)">
        <path d="M1389.88,460.961C1383.24,468.711 1376.59,476.461 1369.95,484.211" style="fill:none;stroke-width:0.52px;stroke:rgb(217,217,217);"/>
    </g>
    <path d="M1365.06,500.709C1365.06,500.708 1365.06,500.708 1365.06,500.708L1365.05,500.708C1365.05,500.708 1365.05,500.708 1365.05,500.709L1365.05,510.27C1365.05,510.271 1365.05,510.271 1365.05,510.271L1365.06,510.271C1365.06,510.271 1365.06,510.271 1365.06,510.27L1365.06,500.709Z" style="fill:rgb(153,153,153);stroke-width:0.83px;stroke:rgb(217,217,217);"/>
    <g transform="matrix(1,0,0,1,16.3061,-1.00387)">
        <path d="M1365.06,500.709C1365.06,500.708 1365.06,500.708 1365.06,500.708L1365.05,500.708C1365.05,500.708 1365.05,500.708 1365.05,500.709L1365.05,510.27C1365.05,510.271 1365.05,510.271 1365.05,510.271L1365.06,510.271C1365.06,510.271 1365.06,510.271 1365.06,510.27L1365.06,500.709Z" style="fill:rgb(153,153,153);stroke-width:0.83px;stroke:rgb(217,217,217);"/>
    </g>
    <g transform="matrix(0.519873,1.27332e-16,-1.27332e-16,0.519873,1352.35,474.707)">
        <path d="M79.4,78.2C74.7,78.2 70.4,77.2 66.7,75.6L71.2,72.8L66.3,72.5L67,67.5L62.8,70.4L60.4,66L59.9,71C57,68.2 55.052,63.332 54.752,59.632L64.694,57.847L61.396,56.74L65.8,54.927L62.343,53.815L63.912,51.598L54.9,52.4L54.9,48.1L54.9,44.2L61.6,47.4L58.7,42.3L64.2,39.8L58.6,37.5L61.3,32.3L54.9,35.6L54.9,31L54.9,29.3L63.5,30.4L58.3,25.6L63.6,20.7L56.4,20.1L57.5,13.1L51.3,19.5C50.4,18.4 49.4,17.3 48.2,16.4L56.7,8.7L47.4,9.8L47,0.2L40.2,7L33.9,0L35,11C33.8,10.8 32.6,10.8 31.3,10.8C23.1,10.8 16,14.2 11.8,19.4C12.9,19.4 13.9,19.5 14.9,19.6L16.1,26.2L19.5,20.4C19.9,20.5 20.3,20.6 20.7,20.7L20.3,27.5L25.2,22.3C25.5,22.5 25.8,22.6 26.2,22.8L24.3,28.9L29.9,25.4C32,27.3 33.2,29.5 33.2,31.9C33.2,33.6 32.6,35.3 31.4,36.7L26.6,34L28.6,39.4C28.2,39.7 27.9,39.9 27.5,40.1L22.8,35.5L23.4,42.1C23,42.3 22.6,42.4 22.1,42.6L18.6,37L17.7,43.7C16.9,43.8 16.1,44 15.3,44.1C18,46.2 21.3,47.8 25,48.6L25,56.3L19.2,56.3L18.3,56.3L17.3,56.3L15.291,56.509L16.9,58.3L15,59.3L14.3,59.8L15.1,60.3L16.9,61.4L15.6,63.4L25,63.4C25,67.7 26.8,71.6 29.8,74.3L29.8,88.8L31.8,87.5L33.4,90.1L35,87.5L37,88.8L37,85.2L37,78C38,78.2 38.9,78.3 39.9,78.3C40.1,78.3 40.4,78.3 40.6,78.3L40.6,88.8L42.6,87.5L44.2,90.1L45.8,87.5L47.8,88.8L47.8,85.2L47.8,79.6C52,82 57.2,83.5 63,83.5C69.7,83.5 75.8,81.5 80.2,78.3C79.9,78.2 79.6,78.2 79.4,78.2ZM42.8,28.9C42.9,28.8 43.4,27.2 42.9,25.6C42.4,24 40.9,23 40.9,23C40.9,23 40.2,24.7 40.7,26.3C41.3,27.8 42.7,28.8 42.8,28.9C42.6,29 42.5,29 42.3,29.1C39,30.2 35.5,28.4 34.4,25.1L46.3,21.2C47.3,24.3 45.8,27.6 42.8,28.9Z" style="fill:rgb(153,153,153);fill-rule:nonzero;"/>
    </g>
    <g transform="matrix(1,0,0,1,141.934,123.44)">
        <path d="M1365.06,500.709C1365.06,500.708 1365.06,500.708 1365.06,500.708L1365.05,500.708C1365.05,500.708 1365.05,500.708 1365.05,500.709L1365.05,510.27C1365.05,510.271 1365.05,510.271 1365.05,510.271L1365.06,510.271C1365.06,510.271 1365.06,510.271 1365.06,510.27L1365.06,500.709Z" style="fill:rgb(153,153,153);stroke-width:0.83px;stroke:rgb(217,217,217);"/>
    </g>
    <g transform="matrix(1,0,0,1,165.933,118.451)">
        <path d="M1365.06,500.709C1365.06,500.708 1365.06,500.708 1365.06,500.708L1365.05,500.708C1365.05,500.708 1365.05,500.708 1365.05,500.709L1365.05,510.27C1365.05,510.271 1365.05,510.271 1365.05,510.271L1365.06,510.271C1365.06,510.271 1365.06,510.271 1365.06,510.27L1365.06,500.709Z" style="fill:rgb(153,153,153);stroke-width:0.83px;stroke:rgb(217,217,217);"/>
    </g>
    <g transform="matrix(1.07189,0,0,1.8304,41.1387,-278.975)">
        <path d="M1353.58,472.583C1359.13,478.351 1370.23,489.887 1372.13,490.066C1374.03,490.245 1368.01,479.184 1365,473.654" style="fill:none;stroke-width:0.42px;stroke:rgb(217,217,217);"/>
    </g>
    <g transform="matrix(1.27861,0,0,1.20078,-424.212,-123.061)">
        <ellipse cx="1519.71" cy="611.109" rx="6.126" ry="6.007" style="fill:white;"/>
    </g>
    <g transform="matrix(0.509097,0,0,0.47219,1495.4,594.71)">
        <path d="M70.5,25.4C70.5,25.1 70.5,24.8 70.4,24.5C69.7,21.7 68.5,19.7 67.5,18.4C60.6,9.6 46.2,11 45.2,11L45.1,11C44,11 30.5,9.7 23.9,18.2C22.3,20.3 21.4,22.6 21,24.5C20.9,24.8 20.9,25.4 20.9,25.7L24,82L23.4,88.9C23.6,89.5 24,89.4 24.3,89.6C26,91 29.3,90.7 30.4,90.6C30.6,90.6 30.8,90.6 31,90.5C32,90.5 35.1,90.6 36.8,89.3C37.3,88.9 37.5,88.9 37.7,88.5L37.4,85.4C37,83.4 38.8,82 41,82L50.3,82C52.6,82 54.3,83.4 54.1,85.5L53.8,88.8C54,89.4 54.4,89.3 54.7,89.6C56.4,91 59.7,90.7 60.8,90.6C61,90.6 61.2,90.6 61.4,90.6C62.4,90.6 65.5,90.7 67.2,89.4C67.7,89 67.9,89 68.1,88.6C67.9,86.2 67.7,83.8 67.5,81.4L70.5,25.4ZM45.5,48C37.7,48 31.4,41.7 31.4,34C31.4,26.3 37.7,20 45.5,20C53.3,20 59.6,26.3 59.6,34C59.6,41.7 53.3,48 45.5,48ZM45.5,25.7C40.9,25.7 37.1,29.4 37.1,34C37.1,38.6 40.9,42.3 45.5,42.3C50.1,42.3 53.9,38.6 53.9,34C53.9,29.4 50.1,25.7 45.5,25.7ZM48.8,40C48.1,40 47.4,39.4 47.4,38.7C47.4,38 48,37.4 48.8,37.4C49.5,37.4 50.2,38 50.2,38.7C50.2,39.4 49.6,40 48.8,40ZM48.8,34.7C47.1,34.7 45.7,33.3 45.7,31.7C45.7,30 47.1,28.7 48.8,28.7C50.5,28.7 51.9,30.1 51.9,31.7C51.9,33.3 50.5,34.7 48.8,34.7ZM39.1,47C38.7,46.8 38.3,46.6 37.7,46.6C36.8,46.6 35.8,47 35,47.3C33.7,47.9 33,49 32.2,50.1C31.7,50.9 31.2,51.7 30.5,52.3C30.3,52.5 30.1,52.7 29.9,52.9C28.6,54.3 27.7,56.1 26.9,57.8C26.1,59.4 25.2,61.1 24,62.5C22.3,64.3 21.1,66.4 19.8,68.4C18.5,70.5 17.2,72.6 15.5,74.5C13,77.2 10,79.3 6.9,80.6C6,81 5.5,81.7 5.6,82.5C5.6,83.3 6.1,84 6.9,84.3C8.6,84.9 10.2,85.1 11.9,85.1C12.1,85.1 12.3,85.1 12.5,85.1C15.1,85 19.9,84.3 22.6,81.2C22.9,80.8 23.5,80.2 24.2,79.6C25,78.8 25.8,78 26.2,77.5C29.2,73.9 32,72.3 35.8,70.9C36.6,70.6 37.1,69.8 37.1,69C36.8,62.2 37.6,53.2 39.1,47ZM12.7,84C11.4,84.1 10.3,83.7 10.2,82.9C10.1,82.2 11.1,81.4 12.4,81.3C13.7,81.2 14.8,81.6 14.9,82.4C14.9,83.2 14,83.9 12.7,84ZM19.6,81.8C18.1,82.3 16.7,82 16.4,81.1C16.1,80.2 17,79.1 18.5,78.6C20,78.1 21.4,78.4 21.7,79.3C22,80.1 21.1,81.3 19.6,81.8ZM25.6,77.3C25,78.1 23.8,78.3 22.9,77.7C22,77.1 21.8,75.9 22.4,75.1C23,74.3 24.2,74.1 25.1,74.7C26,75.3 26.2,76.5 25.6,77.3ZM95.7,35.6C92.9,34.7 90.4,34.4 88.1,34.6C84.6,35 81.5,36.7 79.9,39.3C79.1,40.7 78.6,42.2 78.2,43.7C77.9,44.9 77.5,46.2 77,47.3C76.2,49 74.9,50.4 73.3,51.5C71.7,52.6 69.8,53.2 68,53.3C67.8,53.3 67.6,53.3 67.4,53.3C65.7,53.3 64,52.9 62.5,52.1C60.8,51.2 59.4,49.9 58.4,48.4C56.6,51.6 54.8,54.7 53,57.9C52.6,58.6 52.2,59.3 52,60.1C51.7,61.5 52.1,63.5 54.1,65.3C55.3,66.3 56.8,67.1 59,67.8C62,68.8 65.3,69.6 69,70.1C72.3,70.6 76,70.9 78.9,69.1C82,67.2 83.4,63.5 84.6,59.6C85.7,56 86.8,52.4 87.9,48.9C89.2,44.6 91,39.8 95.1,38C95.3,37.9 95.5,37.8 95.7,37.7C95.8,37.7 95.9,37.6 96,37.6C96.5,37.4 96.7,37 96.7,36.5C96.3,36 96.1,35.7 95.7,35.6ZM72.8,68.5C71.2,68.7 69.7,68 69.6,67C69.5,66 70.7,64.9 72.4,64.7C74,64.5 75.5,65.2 75.6,66.2C75.7,67.3 74.5,68.3 72.8,68.5ZM79.8,64.7C79.2,65.5 78.1,65.7 77.3,65.1C76.5,64.5 76.3,63.3 76.8,62.5C77.4,61.7 78.5,61.5 79.3,62.1C80.1,62.7 80.3,63.8 79.8,64.7ZM83.1,59.5C82.5,60.8 81.3,61.6 80.4,61.1C79.5,60.7 79.2,59.2 79.8,57.9C80.4,56.6 81.6,55.8 82.5,56.3C83.4,56.7 83.7,58.1 83.1,59.5ZM85.9,52.1C85.6,53.5 84.5,54.5 83.5,54.2C82.5,53.9 82,52.6 82.4,51.2C82.7,49.8 83.8,48.8 84.8,49.1C85.7,49.3 86.2,50.7 85.9,52.1ZM85.9,46.8C85,46.9 84.1,46.4 84,45.6C83.9,44.9 84.6,44.2 85.6,44.1C86.5,44 87.4,44.5 87.5,45.3C87.5,46 86.8,46.7 85.9,46.8ZM89.4,41C88.3,42.1 86.9,42.4 86.2,41.7C85.5,41 85.9,39.6 87,38.6C88.1,37.6 89.5,37.2 90.2,37.9C90.9,38.5 90.5,39.9 89.4,41Z" style="fill:rgb(153,153,153);fill-rule:nonzero;"/>
    </g>
    <path d="M1365.13,500.722C1368.29,504.109 1366.37,508.239 1365.41,510.304" style="fill:none;stroke-width:0.83px;stroke:rgb(217,217,217);"/>
    <g transform="matrix(-0.999248,-0.0387848,0.0387848,-0.999248,2725.38,1061.65)">
        <path d="M1364.16,499.736C1367.32,503.123 1365.94,507.308 1365.25,509.401" style="fill:none;stroke-width:0.83px;stroke:rgb(217,217,217);"/>
    </g>
    <g transform="matrix(0.967712,0,0,1,186.08,123.082)">
        <path d="M1365.13,500.722C1368.29,504.109 1366.37,508.239 1365.41,510.304" style="fill:none;stroke-width:0.85px;stroke:rgb(217,217,217);"/>
    </g>
    <g transform="matrix(-0.999248,-0.0387848,0.0387848,-0.999248,2874.95,1181.14)">
        <path d="M1364.54,499.816C1367.7,503.203 1366.06,507.335 1365.25,509.401" style="fill:none;stroke-width:0.83px;stroke:rgb(217,217,217);"/>
    </g>
</svg>
